<svg version="1.1" xmlns="http://www.w3.org/2000/svg" height="512" width="512">
    <rect width="100%" height="100%" fill="#3273d2" />
    <path id="rightFrontWheel" d="M145,342 Q147,374,157,375 L173,375 Q181,374,181,355Z" fill="#111"></path> 
    <path id="leftBackWheelSide" d="M305,310 Q294,314,294,338 Q295,375,306,376 L287,310 Q276,314,276,338 Q277,375,288,376 L306,376Z" fill="#181818"></path>
    <path id="leftBackWheel" d="M306,376 Q317,374,318,342 Q317,310,305,310 Q294,314,294,338 Q295,375,306,376Z" fill="#222"></path>
    <path id="side" d="M249,355L298,356 Q297,298,313,300 Q326,304,328,358 L422,355 Q420,308,430,310 Q438,311,440,353 L464,354L475,348 C474,248,474,218,464,214 L274,150 Q248,146,248,180 L248,266L248,266Z" fill="#fff"></path>
    <path id="frontFace" d="M250,266L249,355 Q244,353,208,354 Q151,353,102,358 L79,358 Q75,356,75,334 L76,331L76,281L79,275Z" fill="#fff"></path>
    <path id="mainWindow" d="M248,266L248,179 Q250,142,274,150 C215,138,138,146,104,166 Q88,185,84,206 Q77,238,78,278 Q80,286,94,289 L210,282 Q240,275,248,266Z" fill="#222"></path>
    <path id="leftLight" d="M246,291 Q200,310,204,329 L228,324 Q242,321,244,311Z" fill="#333"></path>
    <path id="rightLight" d="M77,302 C104,321,98,328,102,333 Q92,332,81,329 Q75,327,77,321Z" fill="#333"></path>
</svg>